<svg width="370" height="100" viewBox="0 0 370 100" fill="none" xmlns="http://www.w3.org/2000/svg">
<path d="M126.079 23.5617C126.079 42.7676 124.605 62.5067 126.079 81.6613C126.309 84.661 137.754 89.645 140.72 90.4924C156.681 95.0529 170.749 86.3093 186.735 86.3093" stroke="#1E1E1E" stroke-width="5" stroke-linecap="round" stroke-linejoin="round"/>
<path d="M128.52 56.3956C142.027 52.5365 157.861 50.0912 170.351 43.8461" stroke="#1E1E1E" stroke-width="5" stroke-linecap="round" stroke-linejoin="round"/>
<path d="M118.998 26.4819C141.312 24.7655 163.543 18.1156 185.929 18.1156" stroke="#1E1E1E" stroke-width="5" stroke-linecap="round" stroke-linejoin="round"/>
<path d="M211.529 95.5267C209.29 72.2914 205.254 47.7124 205.254 24.4128C205.254 21.949 203.806 12.1495 205.719 10.2365C207.611 8.34505 219.93 23.8913 221.755 25.3424C226.121 28.8156 261.197 58.7788 266.84 55.5542C269.255 54.1741 267.849 47.2913 268.234 44.9801C269.757 35.8461 273.245 26.1406 276.368 17.4409C277.739 13.6222 279.731 -2.58144 283.689 4.54278C285.961 8.63247 286.558 13.8337 287.988 18.2543C291.716 29.7764 298.219 40.1565 303.21 51.1387C309.243 64.4102 311.183 79.2653 314.017 93.4352" stroke="#1E1E1E" stroke-width="5" stroke-linecap="round" stroke-linejoin="round"/>
<path d="M343.474 18.792C330.33 18.792 323.359 20.8291 326.857 36.5705C329.977 50.6106 345.75 47.1235 356.953 48.1904C386.241 50.9798 340.41 85.7228 324.649 85.7228" stroke="#1E1E1E" stroke-width="5" stroke-linecap="round" stroke-linejoin="round"/>
<path d="M54.6958 19.29C67.2514 19.29 78.8035 17.0189 91.0325 17.0189C96.1005 17.0189 123.439 15.7948 125.098 12.4768" stroke="#1E1E1E" stroke-width="5" stroke-linecap="round" stroke-linejoin="round"/>
<path d="M86.9913 19.7367C86.9913 26.9545 87.019 34.1729 86.9675 41.3906C86.9046 50.191 86.9084 59.0783 85.779 67.8222C84.9652 74.1227 83.5566 80.7694 79.6941 85.982C72.1675 96.1392 55.6985 96.7843 44.2539 96.8921C35.9665 96.9701 27.7766 95.7342 20.1993 92.2333C12.8703 88.8472 8.39027 83.7271 2.70502 78.352" stroke="#1E1E1E" stroke-width="5" stroke-linecap="round" stroke-linejoin="round"/>
</svg>
